<svg width="28" height="28" viewBox="0 0 28 28" fill="none" xmlns="http://www.w3.org/2000/svg">
<circle cx="14" cy="14" r="14" fill="white"/>
<path fill-rule="evenodd" clip-rule="evenodd" d="M9.92405 19.5711H7.20705C6.63612 19.5711 6.35411 19.5711 6.18216 19.4611C5.99643 19.3406 5.88294 19.1412 5.86918 18.921C5.85885 18.7182 5.99988 18.4705 6.28189 17.9752L12.9905 6.15035C13.276 5.64822 13.4204 5.39715 13.6027 5.30429C13.7987 5.20456 14.0326 5.20456 14.2287 5.30429C14.4109 5.39715 14.5554 5.64822 14.8408 6.15035L16.22 8.55783L16.227 8.57011C16.5353 9.10881 16.6917 9.38198 16.7599 9.66869C16.8356 9.98167 16.8356 10.3118 16.7599 10.6248C16.6912 10.9137 16.5364 11.1889 16.2234 11.7357L12.6995 17.9649L12.6904 17.9809C12.3801 18.524 12.2228 18.7993 12.0048 19.007C11.7675 19.234 11.482 19.399 11.1691 19.492C10.8836 19.5711 10.5638 19.5711 9.92405 19.5711ZM16.7854 19.5711H20.6786C21.2529 19.5711 21.5419 19.5711 21.7139 19.4577C21.8996 19.3373 22.0165 19.1343 22.0269 18.9143C22.0368 18.718 21.8988 18.4799 21.6285 18.0135C21.6192 17.9976 21.6099 17.9814 21.6004 17.965L19.6503 14.6289L19.6281 14.5914C19.3541 14.128 19.2157 13.894 19.0381 13.8035C18.8421 13.7037 18.6115 13.7037 18.4156 13.8035C18.2368 13.8964 18.0923 14.1405 17.8069 14.6324L15.8637 17.9684L15.857 17.9799C15.5726 18.4709 15.4304 18.7163 15.4406 18.9177C15.4544 19.1378 15.5679 19.3406 15.7536 19.4611C15.9221 19.5711 16.211 19.5711 16.7854 19.5711Z" fill="#E84142"/>
</svg>
