<svg width="28" height="28" viewBox="0 0 28 28" fill="none" xmlns="http://www.w3.org/2000/svg">
<path d="M14 28C21.732 28 28 21.732 28 14C28 6.26801 21.732 0 14 0C6.26801 0 0 6.26801 0 14C0 21.732 6.26801 28 14 28Z" fill="white"/>
<path fill-rule="evenodd" clip-rule="evenodd" d="M11.073 12.7967L14.0013 9.86966L16.9308 12.7991L18.6338 11.095L14.0013 6.46155L9.36891 11.0938L11.073 12.7967ZM6.46143 14.0003L8.16491 12.2968L9.8684 14.0003L8.16491 15.7037L6.46143 14.0003ZM14.0013 18.1315L11.073 15.2033L9.36653 16.905L9.36891 16.9074L14.0013 21.5385L18.6338 16.905L18.6349 16.9038L16.9308 15.2021L14.0013 18.1315ZM18.1314 14.0007L19.8349 12.2973L21.5383 14.0007L19.8349 15.7041L18.1314 14.0007ZM14.0013 12.2703L15.7293 13.9994H15.7305L15.7293 14.0006L14.0013 15.7297L12.2734 14.003L12.271 13.9994L12.2734 13.997L12.5759 13.6946L12.7235 13.5481L14.0013 12.2703Z" fill="#F3BA2F"/>
</svg>
