<svg width="25" height="24" viewBox="0 0 25 24" fill="none" xmlns="http://www.w3.org/2000/svg">
<path d="M9.21438 21C9.21438 21.55 9.67509 22 10.2382 22H14.3334C14.8965 22 15.3572 21.55 15.3572 21V20H9.21438V21ZM12.2858 2C8.32878 2 5.11914 5.135 5.11914 9C5.11914 11.38 6.33747 13.475 8.19057 14.74V17C8.19057 17.55 8.65128 18 9.21438 18H15.3572C15.9203 18 16.381 17.55 16.381 17V14.74C18.2341 13.475 19.4525 11.38 19.4525 9C19.4525 5.135 16.2428 2 12.2858 2ZM15.2088 13.1L14.3334 13.695V16H10.2382V13.7L9.36283 13.105C7.98581 12.165 7.16676 10.635 7.16676 9.005C7.16676 6.25 9.46521 4.005 12.2858 4.005C15.1064 4.005 17.4049 6.25 17.4049 9.005C17.4049 10.63 16.5858 12.16 15.2088 13.1Z" fill="white"/>
</svg>
