<svg width="30" height="30" viewBox="0 0 30 30" fill="none" xmlns="http://www.w3.org/2000/svg">
<circle opacity="0.2" cx="15" cy="15" r="15" fill="#ED636C"/>
<g clip-path="url(#clip0_0_792)">
<path d="M21.1363 19.0909V19.7727C21.1363 20.5261 20.526 21.1364 19.7726 21.1364H10.2272C9.47375 21.1364 8.86353 20.5261 8.86353 19.7727V10.2273C8.86353 9.47387 9.47375 8.86365 10.2272 8.86365H19.7726C20.526 8.86365 21.1363 9.47387 21.1363 10.2273V10.9091H14.9999C14.2465 10.9091 13.6363 11.5193 13.6363 12.2727V17.7273C13.6363 18.4807 14.2465 19.0909 14.9999 19.0909H21.1363ZM14.9999 17.7273H21.8181V12.2727H14.9999V17.7273ZM17.7272 16.0227C17.1613 16.0227 16.7044 15.5659 16.7044 15C16.7044 14.4341 17.1613 13.9773 17.7272 13.9773C18.2931 13.9773 18.7499 14.4341 18.7499 15C18.7499 15.5659 18.2931 16.0227 17.7272 16.0227Z" fill="#ED636C"/>
</g>
<defs>
<clipPath id="clip0_0_792">
<rect width="16.3636" height="16.3636" fill="white" transform="translate(6.81812 6.81818)"/>
</clipPath>
</defs>
</svg>
