<svg width="92" height="82" viewBox="0 0 92 82" fill="none" xmlns="http://www.w3.org/2000/svg">
<path d="M45.6937 61.6852C62.8261 61.6852 76.7147 47.8765 76.7147 30.8426C76.7147 13.8087 62.8261 0 45.6937 0C28.5612 0 14.6726 13.8087 14.6726 30.8426C14.6726 47.8765 28.5612 61.6852 45.6937 61.6852Z" fill="#FF656E"/>
<path d="M38.6969 25.4788C37.7686 24.5434 36.7157 23.7381 35.5693 23.0753V28.3716C37.5007 30.261 38.6969 32.8936 38.6969 35.7989V35.836C38.6907 37.967 38.0427 39.9492 36.9275 41.597C37.6876 42.8421 38.7281 43.8951 39.9617 44.6694C41.837 42.2164 42.9523 39.1501 42.9585 35.836V35.7989C42.9647 31.7848 41.3386 28.13 38.6969 25.4788ZM31.856 45.5924C30.722 46.0137 29.4884 46.2429 28.205 46.2429C22.4045 46.2429 17.7068 41.5722 17.7068 35.8051C17.7068 30.038 22.4045 25.3673 28.205 25.3673C28.5165 25.3673 28.8155 25.3797 29.1146 25.4106V21.1488C28.8155 21.1302 28.5103 21.124 28.205 21.124C20.0494 21.124 13.439 27.6964 13.439 35.8051C13.439 43.9137 20.0494 50.4861 28.205 50.4861C30.6099 50.4861 32.884 49.9162 34.8902 48.9003C33.7313 47.9464 32.7033 46.8313 31.856 45.5924Z" fill="#FF656E" stroke="#FF656E" stroke-width="8" stroke-miterlimit="10" stroke-linejoin="round"/>
<path d="M42.9648 13.5049H38.697V35.8362H42.9648V13.5049Z" fill="#FF656E" stroke="#FF656E" stroke-width="8" stroke-miterlimit="10" stroke-linejoin="round"/>
<path d="M60.4659 4.99316C52.3104 4.99316 45.7 11.5656 45.7 19.6742C45.7 23.7007 47.3261 27.3492 49.974 30.0005C51.2388 31.2642 52.7278 32.3111 54.3851 33.0544V28.1731C51.7123 26.2838 49.974 23.1803 49.974 19.668C49.974 13.9071 54.6717 9.23022 60.4722 9.23022C66.2664 9.23022 70.9704 13.9009 70.9704 19.668C70.9704 25.3112 66.472 29.9076 60.846 30.0934V34.3491C68.8333 34.1508 75.2444 27.6528 75.2444 19.668C75.2319 11.5656 68.6215 4.99316 60.4659 4.99316Z" fill="#FF656E" stroke="#FF656E" stroke-width="8" stroke-miterlimit="10" stroke-linejoin="round"/>
<path d="M45.7014 42.0107H49.9692V19.6794H45.7014V42.0107Z" fill="#FF656E" stroke="#FF656E" stroke-width="8" stroke-miterlimit="10" stroke-linejoin="round"/>
<path d="M34.4728 16.7939V20.7151V36.7651H34.479C34.479 42.526 39.1767 47.2029 44.9772 47.2029C50.7714 47.2029 55.4754 42.5322 55.4754 36.7651V22.4867H59.7432V36.7651V39.1872V53.4656C59.7432 55.4602 59.3444 57.3619 58.6155 59.0964C56.3975 64.4113 51.1266 68.1466 44.9772 68.1466C40.672 68.1466 36.7967 66.3192 34.0989 63.3954C33.1208 62.3361 32.2921 61.1344 31.6566 59.8212L34.9463 56.5505C35.3949 57.9876 36.1425 59.2946 37.1207 60.3911C39.0396 62.5468 41.8495 63.9034 44.9772 63.9034C50.7714 63.9034 55.4754 59.2327 55.4754 53.4656V47.0852C52.7963 49.7736 49.083 51.4462 44.9772 51.4462C37.2079 51.4462 30.8529 45.487 30.261 37.9173H30.2112V21.223C30.2112 21.0558 30.2174 20.8823 30.2236 20.7151H30.2112V16.7939H34.4728Z" fill="#FF656E" stroke="#FF656E" stroke-width="8" stroke-miterlimit="10" stroke-linejoin="round"/>
<path d="M34.4728 16.7939V20.7151V36.7651H34.479C34.479 42.526 39.1767 47.2029 44.9772 47.2029C50.7714 47.2029 55.4754 42.5322 55.4754 36.7651V22.4867H59.7432V36.7651V39.1872V53.4656C59.7432 55.4602 59.3444 57.3619 58.6155 59.0964C56.3975 64.4113 51.1266 68.1466 44.9772 68.1466C40.672 68.1466 36.7967 66.3192 34.0989 63.3954C33.1208 62.3361 32.2921 61.1344 31.6566 59.8212L34.9463 56.5505C35.3949 57.9876 36.1425 59.2946 37.1207 60.3911C39.0396 62.5468 41.8495 63.9034 44.9772 63.9034C50.7714 63.9034 55.4754 59.2327 55.4754 53.4656V47.0852C52.7963 49.7736 49.083 51.4462 44.9772 51.4462C37.2079 51.4462 30.8529 45.487 30.261 37.9173H30.2112V21.223C30.2112 21.0558 30.2174 20.8823 30.2236 20.7151H30.2112V16.7939H34.4728Z" fill="#FF656E" stroke="#FF656E" stroke-width="8" stroke-miterlimit="10" stroke-linejoin="round"/>
<path d="M38.6969 25.4788C37.7686 24.5434 36.7157 23.7381 35.5693 23.0753V28.3716C37.5007 30.261 38.6969 32.8936 38.6969 35.7989V35.836C38.6907 37.967 38.0427 39.9492 36.9275 41.597C37.6876 42.8421 38.7281 43.8951 39.9617 44.6694C41.837 42.2164 42.9523 39.1501 42.9585 35.836V35.7989C42.9647 31.7848 41.3386 28.13 38.6969 25.4788ZM31.856 45.5924C30.722 46.0137 29.4884 46.2429 28.205 46.2429C22.4045 46.2429 17.7068 41.5722 17.7068 35.8051C17.7068 30.038 22.4045 25.3673 28.205 25.3673C28.5165 25.3673 28.8155 25.3797 29.1146 25.4106V21.1488C28.8155 21.1302 28.5103 21.124 28.205 21.124C20.0494 21.124 13.439 27.6964 13.439 35.8051C13.439 43.9137 20.0494 50.4861 28.205 50.4861C30.6099 50.4861 32.884 49.9162 34.8902 48.9003C33.7313 47.9464 32.7033 46.8313 31.856 45.5924Z" fill="white"/>
<path d="M42.9648 13.5049H38.697V35.8362H42.9648V13.5049Z" fill="white"/>
<path d="M60.4659 4.99316C52.3104 4.99316 45.7 11.5656 45.7 19.6742C45.7 23.7007 47.3261 27.3492 49.974 30.0005C51.2388 31.2642 52.7278 32.3111 54.3851 33.0544V28.1731C51.7123 26.2838 49.974 23.1803 49.974 19.668C49.974 13.9071 54.6717 9.23022 60.4722 9.23022C66.2664 9.23022 70.9704 13.9009 70.9704 19.668C70.9704 25.3112 66.472 29.9076 60.846 30.0934V34.3491C68.8333 34.1508 75.2444 27.6528 75.2444 19.668C75.2319 11.5656 68.6215 4.99316 60.4659 4.99316Z" fill="white"/>
<path d="M45.7014 42.0107H49.9692V19.6794H45.7014V42.0107Z" fill="white"/>
<path d="M34.4728 16.7939V20.7151V36.7651H34.479C34.479 42.526 39.1767 47.2029 44.9772 47.2029C50.7714 47.2029 55.4754 42.5322 55.4754 36.7651V22.4867H59.7432V36.7651V39.1872V53.4656C59.7432 55.4602 59.3444 57.3619 58.6155 59.0964C56.3975 64.4113 51.1266 68.1466 44.9772 68.1466C40.672 68.1466 36.7967 66.3192 34.0989 63.3954C33.1208 62.3361 32.2921 61.1344 31.6566 59.8212L34.9463 56.5505C35.3949 57.9876 36.1425 59.2946 37.1207 60.3911C39.0396 62.5468 41.8495 63.9034 44.9772 63.9034C50.7714 63.9034 55.4754 59.2327 55.4754 53.4656V47.0852C52.7963 49.7736 49.083 51.4462 44.9772 51.4462C37.2079 51.4462 30.8529 45.487 30.261 37.9173H30.2112V21.223C30.2112 21.0558 30.2174 20.8823 30.2236 20.7151H30.2112V16.7939H34.4728Z" fill="white"/>
<path d="M34.4728 16.7939V20.7151V36.7651H34.479C34.479 42.526 39.1767 47.2029 44.9772 47.2029C50.7714 47.2029 55.4754 42.5322 55.4754 36.7651V22.4867H59.7432V36.7651V39.1872V53.4656C59.7432 55.4602 59.3444 57.3619 58.6155 59.0964C56.3975 64.4113 51.1266 68.1466 44.9772 68.1466C40.672 68.1466 36.7967 66.3192 34.0989 63.3954C33.1208 62.3361 32.2921 61.1344 31.6566 59.8212L34.9463 56.5505C35.3949 57.9876 36.1425 59.2946 37.1207 60.3911C39.0396 62.5468 41.8495 63.9034 44.9772 63.9034C50.7714 63.9034 55.4754 59.2327 55.4754 53.4656V47.0852C52.7963 49.7736 49.083 51.4462 44.9772 51.4462C37.2079 51.4462 30.8529 45.487 30.261 37.9173H30.2112V21.223C30.2112 21.0558 30.2174 20.8823 30.2236 20.7151H30.2112V16.7939H34.4728Z" fill="white"/>
<path d="M4.96561 48.8194C2.75383 49.3212 1.09032 48.4416 0.504661 45.8956L0 43.7089L7.20232 42.0674L7.70698 44.2541C8.29264 46.8062 7.16494 48.3177 4.96561 48.8194ZM4.72886 47.7787C6.52944 47.3699 7.09641 46.2611 6.67897 44.4461L6.41729 43.3125L1.24608 44.4894L1.50775 45.623C1.91896 47.438 2.92828 48.1876 4.72886 47.7787Z" fill="white"/>
<path d="M4.97797 55.7136L4.02472 56.1101L2.19922 51.7987L9.00902 48.9492L10.8221 53.2358L9.85635 53.6385L8.44829 50.312L6.53556 51.1111L7.85017 54.2146L6.88446 54.6172L5.56985 51.5138L3.55744 52.3562L4.97797 55.7136Z" fill="white"/>
<path d="M11.0777 55.7512L9.30827 56.8353L11.1151 59.7591L10.2241 60.3042L8.41732 57.3804L5.67596 59.0529L5.12769 58.1671L11.4204 54.3203L13.8689 58.2786L12.978 58.8237L11.0777 55.7512Z" fill="white"/>
<path d="M15.3515 60.0931L9.53859 64.6275L8.89062 63.8098L14.7098 59.2754L15.3515 60.0931Z" fill="white"/>
<path d="M22.6724 67.2422L17.6445 68.7164L15.6944 70.9341L14.6477 70.0235L16.5916 67.812L17.4015 62.6582L18.5853 63.6865L17.8813 67.397L21.4949 66.2201L22.6724 67.2422Z" fill="white"/>
<path d="M24.7222 68.4436L20.635 74.5638L19.4824 73.8018L23.5695 67.6816L24.7222 68.4436Z" fill="white"/>
<path d="M27.6317 76.8929L27.0336 78.0637L22.772 75.908L26.1177 69.3604L30.3419 71.4975L29.7438 72.6682L26.7532 71.1568L25.9806 72.6744L28.7781 74.0868L28.1799 75.2575L25.3825 73.8452L24.6037 75.369L27.6317 76.8929Z" fill="white"/>
<path d="M34.1426 79.1662L33.7314 80.4113L29.1895 78.9184L31.5072 71.9434L32.828 72.377L30.9277 78.1069L34.1426 79.1662Z" fill="white"/>
<path d="M42.7777 78.2617C42.435 80.5536 41.0706 81.7244 38.3292 81.3155L35.9617 80.9625L37.052 73.6963L39.4195 74.0494C42.1609 74.4582 43.1204 75.9573 42.7777 78.2617ZM38.5224 80.0147C40.5472 80.3182 41.189 79.4448 41.4008 78.0572C41.6126 76.6573 41.2513 75.6476 39.2264 75.344L38.2233 75.1954L37.5193 79.866L38.5224 80.0147Z" fill="white"/>
<path d="M52.516 76.5952C52.653 78.1191 51.7559 79.1598 50.03 79.3146L48.8836 79.4199L49.1017 81.7677L47.2014 81.9411L46.5286 74.6316L49.5752 74.3528C51.301 74.198 52.3789 75.059 52.516 76.5952ZM50.7029 76.7625C50.6531 76.1988 50.2543 75.9386 49.6251 75.9944L48.5846 76.0873L48.7404 77.7908L49.7808 77.6979C50.4101 77.6421 50.7528 77.3138 50.7029 76.7625Z" fill="white"/>
<path d="M57.2446 77.9898L56.2665 78.25L56.8833 80.5296L55.0391 81.0251L53.1201 73.9324L56.0733 73.1457C57.7431 72.6997 58.9517 73.3625 59.3567 74.8554C59.6059 75.7846 59.4253 76.5961 58.8271 77.1907L61.0701 79.4146L59.1262 79.9349L57.2446 77.9898ZM55.8366 76.6704L56.8459 76.404C57.4565 76.243 57.7368 75.8589 57.5935 75.3262C57.444 74.781 57.0141 74.589 56.4035 74.7563L55.3942 75.0226L55.8366 76.6704Z" fill="white"/>
<path d="M67.6806 72.3651C68.5965 74.2545 68.2352 76.3173 65.9237 77.4199C63.6122 78.5287 61.7805 77.519 60.8522 75.6359C59.9425 73.7403 60.2852 71.6652 62.5967 70.5625C64.9081 69.4537 66.7648 70.4758 67.6806 72.3651ZM65.9112 73.2138C65.3193 71.9935 64.3412 71.6156 63.3443 72.0926C62.3474 72.5696 62.0359 73.5731 62.6278 74.7872C63.2135 75.9951 64.1979 76.3792 65.1947 75.896C66.1854 75.4252 66.5031 74.4217 65.9112 73.2138Z" fill="white"/>
<path d="M71.8551 67.0189L70.3224 68.1215L73.5934 72.6249L72.042 73.7337L68.771 69.2365L67.2384 70.3391L66.1792 68.8834L70.7897 65.5693L71.8551 67.0189Z" fill="white"/>
<path d="M78.9825 62.5832C80.5027 64.039 80.8827 66.0956 79.1071 67.9291C77.3314 69.7627 75.2567 69.453 73.7303 68.0035C72.2163 66.5416 71.8113 64.4788 73.5932 62.6452C75.3688 60.8116 77.4622 61.1275 78.9825 62.5832ZM77.6242 63.9894C76.6461 63.0478 75.5931 63.0355 74.8206 63.8284C74.048 64.6212 74.1103 65.6681 75.0885 66.6035C76.0604 67.5327 77.1133 67.5513 77.8797 66.7584C78.6522 65.9655 78.5962 64.9186 77.6242 63.9894Z" fill="white"/>
<path d="M80.7458 59.97C82.0853 60.8434 83.0386 60.2797 83.5495 59.4992C84.0043 58.8054 84.1476 58.0682 84.16 57.424C84.6522 57.7461 85.7426 58.4523 85.7426 58.4523C85.6678 59.1027 85.4061 59.8523 84.9949 60.4717C83.6616 62.4973 81.643 62.9185 79.6555 61.6239C77.6742 60.3354 77.2443 58.3284 78.5839 56.2966C78.9951 55.6709 79.5745 55.132 80.1477 54.8037C80.1477 54.8037 81.2442 55.5161 81.7364 55.8382C81.1445 56.1046 80.5153 56.5258 80.0605 57.2196C79.5371 58.0063 79.4 59.0965 80.7458 59.97Z" fill="white"/>
<path d="M86.5213 48.6154C88.4714 49.4207 89.5804 51.1985 88.596 53.5525C87.6116 55.9064 85.5681 56.371 83.6117 55.5719C81.6678 54.7542 80.5339 52.9826 81.5183 50.6286C82.5027 48.2685 84.5712 47.8101 86.5213 48.6154ZM85.7674 50.4118C84.5089 49.8915 83.5245 50.257 83.1008 51.2729C82.6772 52.2888 83.1133 53.2427 84.3656 53.7631C85.6117 54.2772 86.6023 53.9117 87.026 52.8958C87.4496 51.8799 87.0135 50.9322 85.7674 50.4118Z" fill="white"/>
<path d="M89.7859 42.5693L91.5491 42.9534L90.4526 47.9214L83.2378 46.348L83.649 44.4958L89.1006 45.6852L89.7859 42.5693Z" fill="white"/>
</svg>
