<svg width="34" height="35" viewBox="0 0 34 35" fill="none" xmlns="http://www.w3.org/2000/svg">
<path d="M16.6809 34.2379C25.8347 34.2379 33.2554 26.744 33.2554 17.4998C33.2554 8.25562 25.8347 0.761719 16.6809 0.761719C7.52709 0.761719 0.106445 8.25562 0.106445 17.4998C0.106445 26.744 7.52709 34.2379 16.6809 34.2379Z" fill="#27222B"/>
<path d="M16.6811 24.9875C15.2146 24.9875 13.781 24.5483 12.5616 23.7255C11.3422 22.9027 10.3918 21.7332 9.83061 20.3649C9.2694 18.9967 9.12256 17.4911 9.40866 16.0385C9.69477 14.586 10.401 13.2517 11.438 12.2045C12.475 11.1573 13.7962 10.4441 15.2345 10.1552C16.6729 9.86622 18.1637 10.0145 19.5186 10.5813C20.8735 11.148 22.0316 12.1078 22.8463 13.3392C23.6611 14.5706 24.096 16.0184 24.096 17.4994C24.096 18.4827 23.9042 19.4564 23.5315 20.3649C23.1589 21.2734 22.6127 22.0989 21.9242 22.7943C21.2357 23.4896 20.4183 24.0412 19.5186 24.4175C18.619 24.7938 17.6548 24.9875 16.6811 24.9875ZM15.4458 3.77148H17.9172V7.51553H15.4458V3.77148ZM15.4458 27.4841H17.9172V31.2281H15.4458V27.4841ZM6.19555 8.67487L7.94023 6.91296L10.5573 9.55582L8.81257 11.3177L6.19555 8.67487ZM22.8023 25.4429L24.547 23.681L27.164 26.3239L25.4193 28.0858L22.8023 25.4429ZM25.4193 6.90944L27.164 8.67134L24.547 11.3142L22.8023 9.55229L25.4193 6.90944ZM8.81693 23.681L10.5616 25.4429L7.94459 28.0858L6.19991 26.3239L8.81693 23.681ZM30.2765 16.2555V18.7477H26.5691V16.2519L30.2765 16.2555ZM6.79572 16.2555V18.7477H3.0874V16.2519L6.79572 16.2555Z" fill="#EAF6FF"/>
</svg>
