<svg width="33" height="31" viewBox="0 0 33 31" fill="none" xmlns="http://www.w3.org/2000/svg">
<path d="M16.6278 30.9159C19.7191 30.9159 22.741 30.0117 25.3113 28.3177C27.8816 26.6236 29.8849 24.2157 31.0678 21.3986C32.2508 18.5815 32.5603 15.4816 31.9571 12.491C31.354 9.50036 29.8653 6.75332 27.6793 4.59725C25.4934 2.44119 22.7084 0.972935 19.6764 0.378166C16.6445 -0.216604 13.5019 0.0888263 10.6459 1.25583C7.78999 2.42284 5.34902 4.399 3.63171 6.93442C1.9144 9.46984 0.997874 12.4506 0.998047 15.4999C0.998047 17.5244 1.40233 19.5291 2.18781 21.3995C2.97328 23.27 4.12457 24.9695 5.57594 26.401C7.02731 27.8325 8.75032 28.968 10.6466 29.7427C12.5429 30.5174 14.5753 30.9161 16.6278 30.9159ZM27.054 22.3208C26.0268 23.837 24.6715 25.1097 23.0858 26.0471C21.5 26.9846 19.7232 27.5635 17.8833 27.7422C16.0434 27.9209 14.1863 27.6949 12.4456 27.0805C10.7049 26.4661 9.12406 25.4785 7.81682 24.189C6.50958 22.8995 5.50852 21.3401 4.88573 19.6231C4.26293 17.9061 4.03391 16.0742 4.21516 14.2594C4.3964 12.4446 4.9834 10.692 5.93387 9.12788C6.88435 7.56374 8.17465 6.22697 9.71186 5.21385C9.03905 7.58518 9.0179 10.0904 9.65059 12.4724C10.2833 14.8545 11.547 17.0276 13.3122 18.7689C15.0773 20.5102 17.2804 21.757 19.6952 22.3813C22.1101 23.0056 24.6499 22.985 27.054 22.3216V22.3208Z" fill="#E30613"/>
</svg>
